<svg version="1.2" xmlns="http://www.w3.org/2000/svg" viewBox="0 0 512 512" width="512" height="512">
	<title>icon</title>
	<style>
		.s0 { fill: #0055aa } 
		.s1 { fill: #ffffff } 
	</style>
	<g id="Background">
		<path id="Path 0" class="s0" d="m224.5 1.6c-5.5 0.8-13.6 2.1-18 2.9-4.4 0.9-13.6 3.2-20.5 5.1-6.9 2-17.7 5.6-24 8.1-6.3 2.5-17.1 7.4-24 11-6.9 3.6-17.5 9.8-23.5 13.8-6 4-14.8 10.4-19.5 14.1-4.7 3.8-13.7 12-20 18.4-6.4 6.3-14.6 15.3-18.4 20-3.7 4.7-10.1 13.5-14.1 19.5-4 6-10 16.2-13.3 22.5-3.4 6.3-8.2 16.7-10.7 23-2.5 6.3-6.2 16.7-8 23-1.9 6.3-4.4 16-5.5 21.5-1.1 5.5-2.7 15.6-3.5 22.5-0.8 6.9-1.5 20.2-1.5 29.5 0 9.4 0.7 22.4 1.5 29 0.8 6.6 2.4 16.5 3.5 22 1.1 5.5 3.6 15.2 5.5 21.5 1.8 6.3 5.5 16.7 8 23 2.5 6.3 7.3 16.7 10.7 23 3.3 6.3 9.3 16.4 13.3 22.5 4 6.1 10.4 14.8 14.1 19.5 3.8 4.7 12 13.7 18.4 20 6.3 6.4 15.3 14.6 20 18.4 4.7 3.7 13.5 10.1 19.5 14.1 6 4 16.2 10 22.5 13.3 6.3 3.4 16.7 8.2 23 10.7 6.3 2.5 16.7 6.2 23 8 6.3 1.9 15.8 4.3 21 5.4 5.2 1.1 14.9 2.7 21.5 3.5 7.2 1 19.4 1.6 30.5 1.6 11.1 0 23.3-0.6 30.5-1.6 6.6-0.8 16.3-2.4 21.5-3.5 5.2-1.1 14.7-3.5 21-5.4 6.3-1.8 16.7-5.5 23-8 6.3-2.5 16.7-7.3 23-10.7 6.3-3.3 16.4-9.3 22.5-13.3 6.1-4 14.8-10.4 19.5-14.1 4.7-3.8 13.7-12 20-18.4 6.4-6.3 14.6-15.3 18.4-20 3.7-4.7 10.1-13.4 14.1-19.5 4-6.1 10-16.2 13.3-22.5 3.4-6.3 8.2-16.7 10.7-23 2.5-6.3 6.2-16.7 8-23 1.9-6.3 4.4-16 5.5-21.5 1.1-5.5 2.7-15.6 3.5-22.5 0.8-6.9 1.5-20.1 1.5-29.5 0-9.3-0.7-22.4-1.5-29-0.8-6.6-2.4-16.5-3.5-22-1.1-5.5-3.6-15.2-5.5-21.5-1.8-6.3-5.5-16.7-8-23-2.5-6.3-7.3-16.7-10.7-23-3.3-6.3-9.3-16.5-13.3-22.5-4-6-10.4-14.8-14.1-19.5-3.8-4.7-12-13.7-18.4-20-6.3-6.4-15.3-14.6-20-18.4-4.7-3.7-13.4-10.1-19.5-14.1-6.1-4-16.2-10-22.5-13.3-6.3-3.4-16.7-8.2-23-10.7-6.3-2.5-16.7-6.2-23-8-6.3-1.9-15.8-4.3-21-5.4-5.2-1.1-14.9-2.7-21.5-3.5-7.9-1.1-18.9-1.6-32-1.5-11 0.1-24.5 0.8-30 1.5z"/>
		<path id="Path 1" class="s1" d="m69.5 175.5c-3.3 0.7-8.3 2.3-11 3.5-2.8 1.2-7.2 3.6-9.9 5.3-2.7 1.8-6.5 5.2-8.3 7.7-1.9 2.5-3.3 5.3-3.3 6.3 0 1.2 0.8 1.7 2.8 1.7 1.5 0 6.7-1.8 11.7-4.1 5-2.3 11.9-4.8 15.5-5.5 3.6-0.8 8.8-1.4 11.5-1.4 2.8 0 7.7 0.7 11 1.5 3.3 0.9 7.5 2.8 9.4 4.3 1.8 1.5 4.2 4.3 5.2 6.2 1.4 2.5 1.9 5.6 1.9 10.5 0 3.8-0.7 9.4-1.5 12.3-0.8 2.8-2.7 6.6-4.2 8.3-1.6 1.8-4.4 4-6.3 4.9-1.9 1-6.2 2.3-9.5 3-3.3 0.6-6.8 1.3-7.7 1.6-1.3 0.3-1.7 1.2-1.5 3.1 0.1 2.1 1.1 3.3 3.7 4.6 2.8 1.4 5.4 1.7 13.5 1.5 8.5-0.3 10.9-0.7 15.8-3.1 3.1-1.5 7.8-4.9 10.5-7.5 2.6-2.6 6.1-7.5 7.9-10.8 2.1-3.9 3.5-8.1 4-12.4 0.5-3.6 0.6-8.8 0.2-11.5-0.3-2.8-1.5-7-2.7-9.5-1.1-2.5-3.8-6.3-6-8.5-2.1-2.2-6.5-5.4-9.8-7.2-3.2-1.7-9.4-3.8-13.6-4.7-4.3-0.9-11.3-1.6-15.5-1.5-4.3 0-10.5 0.7-13.8 1.4zm-3.8 25.4c-2.3 2.1-5.8 6.9-7.9 10.7-2 3.8-5 11-6.8 15.9-1.7 4.9-4.4 14.2-6 20.5-1.6 6.3-3.4 15.3-4.1 20-0.6 4.7-1 12.5-0.8 17.3 0.3 7.4 0.7 9.1 2.4 10.3 1.5 1 3.5 1.2 7.5 0.8 3-0.4 7-1.4 8.9-2.3 1.9-0.9 3.8-2.5 4.2-3.6 0.5-1.1 1.3-10.1 1.8-20 0.8-13.9 1.8-21.9 4.6-35 1.9-9.3 3.9-21.1 4.3-26.1 0.6-7.4 0.4-9.4-0.8-10.8-0.8-0.9-1.8-1.7-2.3-1.6-0.4 0-2.6 1.7-5 3.9zm262.1 16.4l-3.3 3.5c-8.9-2.4-14-2.8-19-2.5-6.2 0.3-9.3 1-14 3.2-3.3 1.6-8.9 5.7-12.3 9-4.7 4.4-7.4 8.1-10.3 14-2.2 4.4-4.3 10.2-4.7 12.9-0.6 4.2-1.4 5.5-5.2 8.8-2.5 2.1-7.2 5.2-10.5 6.8-3.3 1.7-8 3.3-10.5 3.6-2.9 0.4-6.5 0.1-10.3-1-3.5-1-6.3-2.4-7.2-3.8-0.9-1.4-1.4-3.9-1.3-6.3l0.3-4c15.5-5.8 22.2-8.8 25-10.4 2.7-1.5 6.3-4.7 8-7.1 2.3-3.2 3.1-5.5 3.3-9.8 0.2-4.4-0.2-6.4-1.7-8.9-1.2-1.8-3.6-4.2-5.4-5.3-1.7-1-5.1-2.2-7.4-2.5-2.3-0.3-6.6-0.1-9.5 0.5-2.9 0.6-7.7 2.3-10.7 3.8-2.9 1.5-7.7 5.2-10.6 8.2-2.8 3-6.7 8.4-8.5 12-1.8 3.6-4.1 9.9-5.1 14-1.6 6.2-2.5 8.1-5.6 10.9-2.1 1.8-6.5 4.6-9.8 6.2-3.3 1.6-8 3.2-10.5 3.5-2.9 0.4-6.5 0.1-10.3-1-3.5-1-6.3-2.4-7.2-3.8-0.9-1.4-1.4-3.9-1.3-6.3l0.3-4c15.5-5.8 22.2-8.8 25-10.4 2.7-1.6 6.3-4.5 8-6.6 2.7-3.3 3-4.4 3-11 0-6.4-0.3-7.7-2.5-10-1.4-1.5-3.6-3.3-5-4-1.4-0.7-4.5-1.6-6.9-1.9-2.4-0.4-6.6-0.2-9.3 0.4-2.6 0.5-6.9 2-9.5 3.3-2.6 1.2-7.4 4.7-10.6 7.7-4.3 4-7 7.7-9.8 13.5-2.2 4.4-4.6 11.4-5.5 15.5-1 4.8-1.4 9.6-1 13.5 0.4 3.3 1.5 7.8 2.5 10 1.1 2.2 3.6 5.5 5.5 7.3 2 1.8 5.9 3.9 8.8 4.7 2.9 0.8 8.7 1.5 12.8 1.5 4.3 0 10.9-0.9 15.5-2 4.4-1.2 10-3.3 12.5-4.8 2.5-1.4 6-3.9 7.7-5.4l3.3-2.8c2.1 4.3 4.4 7 6.4 8.8 2 1.7 6 3.9 8.8 4.7 2.9 0.8 8.7 1.5 12.8 1.5 4.3 0 10.9-0.9 15.5-2 4.4-1.2 10-3.3 12.5-4.8 2.5-1.4 6-3.9 7.7-5.4l3.3-2.8c2.1 4.3 4.6 7.2 6.9 9.3 2.2 2 5.8 4.1 7.8 4.7 2.1 0.5 6.7 1 10.3 1 3.6 0 8.1-0.4 10-1 1.9-0.5 5.3-2.1 7.5-3.6l4-2.7c-1.2 6.8-1.9 9.2-2.3 9.6-0.4 0.4-7.2 2.1-15.2 3.7-8 1.6-16.8 4.1-19.5 5.4-2.8 1.4-5.5 3.6-6.3 5-0.6 1.4-1.2 4.2-1.2 6.1 0 1.9 0.5 4.7 1.1 6.3 0.5 1.5 2.5 4.2 4.2 6 1.8 1.9 5 4.3 7.2 5.4 2.3 1.2 6.8 2.3 10.5 2.6 3.6 0.3 8.7 0 11.5-0.7 2.7-0.6 6.8-2.3 9-3.9 2.2-1.5 5.1-4.3 6.5-6.2 1.3-1.9 3.8-7.2 5.5-11.7l3-8.2c11.6-7.2 16.8-10.9 19-12.9 2.2-1.9 5.8-5.6 8-8.2l4-4.7c6.2 7 9.8 9.9 12 11q4 2 12 2.5c4.4 0.2 11.1-0.1 15-0.7 3.9-0.6 9.7-2.4 13-4 3.3-1.6 8-4.4 10.5-6.3l4.5-3.5c4.2 6.8 7 9.2 10.6 11.1 4.3 2.4 7 3.1 13.4 3.4 4.4 0.3 11.4-0.1 15.5-0.8 4.2-0.8 10.3-2.7 14-4.6 4.1-2 8.6-5.4 12-9.1 3.6-3.7 6.2-7.6 7.3-10.8 1-2.8 1.7-6.5 1.5-8.4-0.2-1.9-0.9-3.6-1.6-3.8-0.6-0.2-3.8 2.2-7 5.2-3.1 3-7.3 6.5-9.2 7.8-1.9 1.4-5.3 3.2-7.5 4.1-2.2 0.9-6 1.9-8.5 2.2-2.5 0.3-6.5 0-9-0.6-2.5-0.7-5.7-2.6-7.3-4.1-2.1-2.2-2.6-3.7-2.5-6.5l0.3-3.6c17.1-6.6 23.8-9.6 26-11 2.2-1.4 5.2-3.9 6.7-5.6 1.6-1.8 3.3-5.1 3.9-7.5 0.6-2.3 0.7-5.5 0.4-7.2-0.4-1.7-1.5-4.3-2.5-6-1-1.7-3.3-3.7-5.1-4.6-1.9-0.9-5.2-2-7.4-2.3-2.2-0.4-6.5-0.2-9.5 0.5-3 0.6-7.8 2.3-10.5 3.7-2.8 1.4-7.3 4.8-10.1 7.6-3.4 3.3-6.6 8-9.3 13.6-2.3 4.7-4.7 11.2-5.4 14.4-1 5-1.9 6.5-5.7 9.8-2.5 2.2-6.8 5-9.5 6.3-2.8 1.3-7.3 2.7-10 3.1-2.8 0.3-6.9 0.1-9.3-0.5-2.3-0.6-5.4-2.1-6.8-3.4-1.6-1.4-2.7-3.6-3.1-6.2-0.5-3.5-0.2-4.1 1.8-5.1 1.3-0.6 7.1-3 12.9-5.2 6.6-2.6 12.1-5.5 14.9-7.9 2.5-2.1 5.3-5.6 6.3-7.8 0.9-2.2 1.8-5.2 1.8-6.8 0-1.5-0.8-4.6-1.8-6.9-0.9-2.2-2.8-4.9-4.2-5.9-1.4-1-4.8-2.3-7.5-2.9-3.7-0.9-6.4-0.9-10.5-0.1-3 0.6-8 2.3-11 3.7-3 1.4-7.8 4.9-10.5 7.8-2.9 2.9-6.8 8.5-9.1 13.1-2.2 4.4-4.6 10.9-5.4 14.5-1 5.1-2.3 7.8-6.1 12.5-2.6 3.3-7.5 8.7-10.8 12-3.3 3.3-6.3 5.8-6.6 5.5-0.3-0.3 1.7-8.6 4.5-18.5 2.8-9.9 6-22.7 7.1-28.5l2.1-10.5c-3.9-7.8-6.1-11-7.4-12.1-1.3-1.2-3.3-2.5-4.5-2.9-1.8-0.5-3 0.1-5.5 2.8z"/>
		<path id="Path 2" class="s0" d="m314.5 230.3c-1.6 0.7-5 2.3-7.5 3.6-2.5 1.3-6.8 4.5-9.5 7.1-3.2 3.1-6 7-7.9 11.1-2.1 4.8-2.9 8-3 13.1-0.1 5.4 0.3 7.2 2 9.5 1.9 2.5 2.8 2.8 7.7 2.8 4.7 0 6.1-0.5 9.4-3.1 2.1-1.7 4.8-4.8 6-7 1.1-2.1 4.2-11.7 6.7-21.2l4.6-17.2c-4.3 0.1-6.9 0.7-8.5 1.3zm-155.3 3.9c-1.2 1.3-3.1 5.2-4.2 8.8-1.1 3.6-1.8 6.7-1.5 7 0.2 0.3 2.6-0.8 5.2-2.4 2.6-1.6 6-4.2 7.6-5.8 2-2.1 2.6-3.6 2.5-6.1-0.3-2.9-0.6-3.2-3.8-3.5-2.7-0.2-4.1 0.3-5.8 2zm66.6 0.5c-1.3 1.5-2.9 4.4-3.5 6.3-0.6 1.9-1.4 4.7-1.7 6.2-0.3 1.6-0.3 2.8 0.2 2.8 0.4-0.1 3.3-1.6 6.5-3.5 3.1-1.9 6.4-4.5 7.2-5.8 0.9-1.2 1.4-3.6 1.3-5.2-0.3-2.7-0.7-3-3.9-3.3-2.9-0.2-4.1 0.2-6.1 2.5zm158.6 0c-1.3 1.6-3.1 4.8-3.9 7.3-0.9 2.5-1.5 5.3-1.5 6.2 0 1 0.2 1.8 0.5 1.8 0.3 0 2.9-1.5 5.8-3.3 2.8-1.8 6.2-4.6 7.5-6.3 1.2-1.6 2.3-3.6 2.3-4.4-0.1-0.8-0.6-2.1-1.3-2.8-0.7-0.7-2.6-1.2-4.1-1.2-1.8 0-3.7 1-5.3 2.7zm67.9-1.2c-1.3 0.8-3.2 4-4.3 7-1.1 3-2 6.4-2 7.5 0 1.1 0.2 2 0.5 2 0.3 0 2.9-1.5 5.8-3.3 2.8-1.8 6.2-4.6 7.5-6.3 1.2-1.6 2.3-3.6 2.3-4.4-0.1-0.8-0.6-2.1-1.3-2.8-0.7-0.7-2.4-1.2-3.8-1.2-1.4 0-3.5 0.7-4.7 1.5zm-159.3 81c-4.1 0.7-8.5 1.5-9.7 1.9-1.6 0.4-2.3 1.4-2.3 3.1 0 1.5 0.9 3.1 2.3 4 1.2 0.8 3.8 1.8 5.7 2.1 2.9 0.5 4.1 0.1 6.9-2.2 1.8-1.6 4-4.1 4.7-5.7 0.8-1.5 1.4-3.2 1.4-3.7 0-0.6-0.3-0.9-0.7-0.9-0.5 0.1-4.2 0.7-8.3 1.4z"/>
	</g>
</svg>